<svg xmlns="http://www.w3.org/2000/svg" viewBox="0 0 460.801 460.801"><path fill="#FFF" d="M231.298 17.068A221.864 221.864 0 0076.501 79.411V17.067C76.501 7.641 68.86 0 59.434 0S42.368 7.641 42.368 17.067v102.4a17.065 17.065 0 0011.674 16.196l102.4 34.133c8.954 2.979 18.628-1.866 21.606-10.82 2.979-8.954-1.866-18.628-10.82-21.606l-75.605-25.156c69.841-76.055 188.114-81.093 264.169-11.252s81.093 188.114 11.252 264.169-188.114 81.093-264.169 11.252c-46.628-42.818-68.422-106.323-57.912-168.75 1.653-9.28-4.529-18.142-13.808-19.796s-18.142 4.529-19.796 13.808a224.427 224.427 0 00-3.123 37.287c.139 122.476 99.39 221.727 221.865 221.868 122.533.331 222.134-98.734 222.465-221.267.33-122.533-98.734-222.134-221.268-222.465z"/></svg>